<?xml version="1.0" standalone="no"?>
<!DOCTYPE svg PUBLIC "-//W3C//DTD SVG 20010904//EN"
 "http://www.w3.org/TR/2001/REC-SVG-20010904/DTD/svg10.dtd">
<svg version="1.0" xmlns="http://www.w3.org/2000/svg"
 width="70.000000pt" height="70.000000pt" viewBox="0 0 70.000000 70.000000"
 preserveAspectRatio="xMidYMid meet">
<metadata>
Created by potrace 1.11, written by Peter Selinger 2001-2013
</metadata>
<g transform="translate(0.000000,70.000000) scale(0.100000,-0.100000)"
fill="#000000" stroke="none">
<path d="M260 658 c-162 -28 -259 -175 -221 -335 24 -99 137 -191 241 -195 23
-1 62 -12 87 -25 52 -26 87 -29 145 -11 39 12 41 11 72 -25 37 -43 46 -45 71
-17 18 20 18 21 -19 59 l-37 38 17 52 c17 54 15 89 -10 144 -8 18 -19 56 -25
85 -14 66 -34 107 -75 150 -35 38 -102 76 -116 67 -6 -3 -10 -2 -10 3 0 13
-68 19 -120 10z m22 -40 c3 -11 3 -64 -1 -106 0 -7 -5 -11 -9 -8 -5 3 -21 7
-36 10 -16 3 -31 7 -33 10 -9 9 53 104 68 105 4 1 9 -5 11 -11z m98 -32 c16
-25 30 -49 30 -54 0 -12 -25 -22 -56 -22 -23 0 -24 3 -24 60 0 33 4 60 10 60
5 0 23 -20 40 -44z m-202 -11 c-6 -14 -17 -25 -25 -25 -19 0 -16 9 10 31 28
24 29 24 15 -6z m290 -26 c-8 -5 -17 0 -25 14 -20 35 -15 42 12 17 19 -17 22
-26 13 -31z m-326 -39 c0 -3 -3 -28 -6 -56 -7 -47 -10 -51 -33 -51 -23 0 -25
3 -20 31 9 54 26 88 43 84 8 -2 15 -5 16 -8z m376 -22 c6 -18 13 -41 17 -51 7
-16 4 -17 -21 -11 -37 9 -36 7 -41 54 -4 35 -2 40 16 40 14 0 23 -9 29 -32z
m-233 -48 l0 -36 -53 0 -53 0 5 46 c2 25 5 45 5 46 1 0 23 -4 49 -9 47 -10 48
-11 47 -47z m143 18 c3 -24 0 -28 -20 -28 -13 0 -33 -7 -44 -15 -29 -22 -34
-18 -34 24 0 33 4 40 23 44 51 10 72 3 75 -25z m-291 -130 c12 -59 10 -68 -16
-68 -13 0 -21 13 -29 51 -16 67 -16 69 11 69 20 0 25 -8 34 -52z m146 13 c-1
-18 -3 -34 -5 -36 -2 -2 -22 -6 -44 -9 -37 -6 -42 -4 -48 16 -3 13 -6 33 -6
46 0 22 3 23 53 20 l52 -3 -2 -34z m-3 -136 c5 -20 0 -45 -9 -45 -5 0 -23 21
-40 47 l-32 48 33 11 c32 11 33 10 39 -20 3 -17 7 -35 9 -41z m-103 10 c6 -14
9 -25 5 -25 -9 0 -42 32 -42 42 0 18 26 6 37 -17z"/>
</g>
</svg>
